<svg width="24" height="24" viewBox="0 0 24 24" fill="none" xmlns="http://www.w3.org/2000/svg">
<g clip-path="url(#clip0_0_1)">
<path d="M11.6841 23.0679C17.9712 23.0679 23.0679 17.9712 23.0679 11.6841C23.0679 5.39699 17.9712 0.300293 11.6841 0.300293C5.39698 0.300293 0.300285 5.39699 0.300285 11.6841C0.300285 17.9712 5.39698 23.0679 11.6841 23.0679Z" fill="white"/>
<path d="M11.6808 0.689766C17.8291 0.689871 22.8136 5.67427 22.8136 11.8226C22.8135 17.9708 17.829 22.9553 11.6808 22.9554C5.53246 22.9554 0.548063 17.9709 0.547958 11.8226C0.547958 5.6742 5.5324 0.689766 11.6808 0.689766Z" fill="#FACB00" stroke="#002449"/>
<path d="M18.0318 8.24537C18.0318 7.92632 17.7899 7.66565 17.4917 7.66565H15.7067L15.3 8.39551H17.3499V14.9851H5.73673V8.39551H11.8655L12.27 7.66565H5.59492C5.29672 7.66565 5.05482 7.92423 5.05482 8.24537V15.7192H18.0318V8.24537Z" fill="#002449"/>
<path d="M11.1878 13.5254L7.7866 10.4537H9.11286L10.9563 12.0845L14.2448 6.28725H15.3L11.1878 13.5254Z" fill="#002449"/>
<path d="M12.952 16.4887L12.8018 16.7806H10.2848L10.1347 16.4887H3.6952C3.6952 16.9453 4.04136 17.3144 4.46677 17.3144H18.622C19.0474 17.3144 19.3935 16.9453 19.3935 16.4887H12.954H12.952Z" fill="#002449"/>
</g>
<defs>
<clipPath id="clip0_0_1">
<rect width="23.4411" height="24" fill="white"/>
</clipPath>
</defs>
</svg>
