<?xml version="1.0" encoding="UTF-8"?><svg id="Layer_2" xmlns="http://www.w3.org/2000/svg" viewBox="0 0 390.9 115.09"><defs><style>.cls-1{fill:#facb00;}.cls-2{fill:#00589c;}.cls-3{fill:#002449;}.cls-4{fill:#fff;}</style></defs><g id="Layer_1-2"><circle class="cls-4" cx="56.03" cy="56.03" r="54.59"/><circle class="cls-1" cx="57.82" cy="60.5" r="54.59"/><path class="cls-3" d="M56.03,112.06C25.13,112.06,0,86.92,0,56.03S25.13,0,56.03,0s56.03,25.13,56.03,56.03-25.13,56.03-56.03,56.03Zm0-109.18C26.72,2.88,2.88,26.72,2.88,56.03s23.84,53.15,53.15,53.15,53.15-23.84,53.15-53.15S85.34,2.88,56.03,2.88Z"/><g><path class="cls-3" d="M86.47,39.54c0-1.53-1.16-2.78-2.59-2.78h-8.56l-1.95,3.5h9.83v31.6H27.51v-31.6h29.39l1.94-3.5H26.83c-1.43,0-2.59,1.24-2.59,2.78v35.84h62.23V39.54Z"/><polygon class="cls-3" points="53.65 64.86 37.34 50.13 43.7 50.13 52.54 57.95 68.31 30.15 73.37 30.15 53.65 64.86"/><path class="cls-3" d="M62.11,79.07l-.72,1.4h-12.07l-.72-1.4H17.72c0,2.19,1.66,3.96,3.7,3.96H89.3c2.04,0,3.7-1.77,3.7-3.96h0s-30.88,0-30.88,0Z"/></g><g><path class="cls-2" d="M146.82,35.4h5.47l12.88,28.98h-7.24l-2.17-5.31h-12.4l-2.17,5.31h-7.25l12.88-28.98Zm-1.41,18.68h8.29l-4.15-10.14-4.15,10.14Z"/><path class="cls-2" d="M178.05,47.48c-.83,0-1.62,.16-2.36,.48s-1.37,.75-1.91,1.29c-.54,.54-.97,1.17-1.29,1.91-.32,.74-.48,1.52-.48,2.36s.16,1.62,.48,2.35c.32,.74,.75,1.38,1.29,1.91,.54,.54,1.17,.97,1.91,1.29,.74,.32,1.52,.48,2.36,.48,1.13,0,2.14-.28,3.04-.85,.9-.56,1.6-1.3,2.11-2.21h6.48c-.35,1.23-.89,2.37-1.61,3.4-.72,1.03-1.6,1.93-2.61,2.7-1.02,.76-2.16,1.36-3.42,1.79-1.26,.43-2.59,.64-3.99,.64-1.66,0-3.23-.3-4.71-.91-1.47-.6-2.76-1.43-3.84-2.48-1.09-1.05-1.95-2.27-2.58-3.66-.63-1.4-.95-2.88-.95-4.47s.32-3.07,.95-4.47c.63-1.4,1.49-2.62,2.58-3.66,1.09-1.05,2.37-1.87,3.84-2.48,1.48-.6,3.05-.91,4.71-.91,1.39,0,2.73,.22,4.01,.66,1.27,.44,2.43,1.05,3.46,1.81,1.03,.76,1.92,1.68,2.66,2.76,.74,1.07,1.27,2.23,1.59,3.46h-6.36c-.54-.97-1.27-1.74-2.19-2.33-.93-.59-1.98-.89-3.16-.89Z"/><path class="cls-2" d="M203.29,47.48c-.83,0-1.62,.16-2.36,.48s-1.38,.75-1.91,1.29c-.54,.54-.97,1.17-1.29,1.91-.32,.74-.48,1.52-.48,2.36s.16,1.62,.48,2.35c.32,.74,.75,1.38,1.29,1.91,.54,.54,1.17,.97,1.91,1.29,.74,.32,1.52,.48,2.36,.48,1.13,0,2.14-.28,3.04-.85,.9-.56,1.6-1.3,2.11-2.21h6.48c-.35,1.23-.88,2.37-1.61,3.4-.72,1.03-1.6,1.93-2.62,2.7-1.02,.76-2.16,1.36-3.42,1.79-1.26,.43-2.59,.64-3.98,.64-1.66,0-3.23-.3-4.71-.91-1.48-.6-2.76-1.43-3.85-2.48-1.09-1.05-1.95-2.27-2.58-3.66-.63-1.4-.95-2.88-.95-4.47s.31-3.07,.95-4.47c.63-1.4,1.49-2.62,2.58-3.66,1.09-1.05,2.37-1.87,3.85-2.48,1.47-.6,3.04-.91,4.71-.91,1.39,0,2.73,.22,4,.66,1.28,.44,2.43,1.05,3.46,1.81,1.03,.76,1.92,1.68,2.66,2.76,.74,1.07,1.27,2.23,1.59,3.46h-6.36c-.54-.97-1.27-1.74-2.2-2.33-.92-.59-1.98-.89-3.16-.89Z"/><path class="cls-2" d="M228.53,42c1.66,0,3.23,.3,4.71,.91s2.76,1.43,3.84,2.48c1.09,1.05,1.95,2.27,2.58,3.66,.63,1.4,.95,2.88,.95,4.47,0,.38-.02,.73-.06,1.07-.04,.34-.09,.68-.14,1.03h-17.55c.46,1.15,1.19,2.1,2.19,2.84,1.01,.74,2.17,1.11,3.48,1.11,.97,0,1.87-.21,2.7-.64,.83-.43,1.52-.99,2.05-1.69h6.68c-.4,1.13-.97,2.17-1.71,3.14-.74,.97-1.61,1.79-2.62,2.48-1.01,.68-2.11,1.22-3.32,1.61-1.21,.39-2.47,.58-3.78,.58-1.66,0-3.23-.3-4.71-.91-1.47-.6-2.76-1.43-3.84-2.48-1.09-1.05-1.95-2.27-2.58-3.66s-.95-2.88-.95-4.47,.32-3.07,.95-4.47,1.49-2.62,2.58-3.66c1.09-1.05,2.37-1.87,3.84-2.48,1.48-.6,3.05-.91,4.71-.91Zm5.68,9.38c-.46-1.14-1.2-2.08-2.21-2.81-1.02-.73-2.17-1.1-3.46-1.1s-2.48,.37-3.48,1.1c-1.01,.73-1.74,1.67-2.19,2.81h11.35Z"/><path class="cls-2" d="M253.81,51.58c.8,.08,1.59,.28,2.35,.58,.76,.31,1.45,.71,2.05,1.21,.6,.5,1.09,1.1,1.47,1.81s.56,1.52,.56,2.44c0,1.18-.24,2.23-.72,3.14-.48,.91-1.13,1.68-1.95,2.32s-1.77,1.11-2.84,1.45c-1.07,.33-2.19,.5-3.34,.5s-2.3-.17-3.36-.5c-1.06-.34-2-.82-2.82-1.45-.82-.63-1.47-1.4-1.95-2.32-.48-.91-.72-1.96-.72-3.14h6.04c0,.46,.09,.84,.26,1.15,.17,.31,.4,.55,.66,.72,.27,.17,.57,.3,.91,.36,.33,.07,.66,.1,.99,.1,.67,0,1.31-.17,1.91-.52,.6-.35,.91-.87,.91-1.57,0-.51-.29-.97-.88-1.37-.59-.4-1.34-.67-2.26-.81-1.05-.13-2.07-.39-3.08-.76-1.01-.38-1.89-.85-2.66-1.41-.76-.56-1.38-1.21-1.85-1.95-.47-.74-.7-1.54-.7-2.39,0-1.1,.23-2.09,.68-2.98s1.08-1.64,1.87-2.25,1.7-1.09,2.74-1.43c1.03-.34,2.14-.5,3.32-.5s2.25,.17,3.3,.5c1.05,.34,1.97,.82,2.76,1.45,.79,.63,1.42,1.41,1.87,2.33,.46,.93,.68,1.97,.68,3.12h-6.04c0-.91-.26-1.53-.79-1.85-.52-.32-1.12-.48-1.79-.48s-1.27,.14-1.79,.42c-.52,.28-.78,.79-.78,1.51,0,.32,.15,.62,.44,.91s.69,.54,1.17,.76c.48,.23,1.02,.42,1.61,.56s1.18,.26,1.77,.34Z"/><path class="cls-2" d="M273.77,51.58c.8,.08,1.59,.28,2.36,.58,.76,.31,1.45,.71,2.05,1.21,.6,.5,1.09,1.1,1.47,1.81,.37,.71,.56,1.52,.56,2.44,0,1.18-.24,2.23-.72,3.14-.48,.91-1.13,1.68-1.95,2.32-.82,.63-1.76,1.11-2.84,1.45-1.07,.33-2.19,.5-3.34,.5s-2.3-.17-3.36-.5c-1.06-.34-2-.82-2.82-1.45-.82-.63-1.47-1.4-1.95-2.32-.48-.91-.72-1.96-.72-3.14h6.04c0,.46,.09,.84,.26,1.15,.17,.31,.4,.55,.66,.72,.27,.17,.57,.3,.91,.36,.34,.07,.66,.1,.99,.1,.67,0,1.31-.17,1.91-.52,.6-.35,.91-.87,.91-1.57,0-.51-.3-.97-.89-1.37-.59-.4-1.34-.67-2.25-.81-1.05-.13-2.07-.39-3.08-.76-1.01-.38-1.89-.85-2.66-1.41-.77-.56-1.38-1.21-1.85-1.95-.47-.74-.7-1.54-.7-2.39,0-1.1,.23-2.09,.68-2.98,.46-.89,1.08-1.64,1.87-2.25,.79-.62,1.7-1.09,2.74-1.43s2.14-.5,3.32-.5,2.25,.17,3.3,.5c1.04,.34,1.96,.82,2.76,1.45,.79,.63,1.42,1.41,1.87,2.33,.46,.93,.68,1.97,.68,3.12h-6.04c0-.91-.26-1.53-.79-1.85-.52-.32-1.12-.48-1.79-.48s-1.27,.14-1.79,.42c-.52,.28-.79,.79-.79,1.51,0,.32,.15,.62,.44,.91s.69,.54,1.17,.76c.48,.23,1.02,.42,1.61,.56,.59,.15,1.18,.26,1.77,.34Z"/><path class="cls-2" d="M286.73,33.55c.48,0,.93,.09,1.35,.28,.42,.19,.78,.44,1.09,.75,.31,.31,.56,.67,.74,1.09,.19,.42,.28,.87,.28,1.35s-.09,.93-.28,1.35c-.19,.42-.44,.79-.74,1.11-.31,.32-.67,.57-1.09,.74-.42,.17-.87,.26-1.35,.26-.97,0-1.79-.34-2.45-1.01-.67-.67-1.01-1.49-1.01-2.46,0-.48,.09-.93,.26-1.35,.17-.42,.42-.78,.75-1.09,.32-.31,.69-.56,1.11-.75,.42-.19,.87-.28,1.35-.28Zm-3.02,9.1h6.04v21.74h-6.04v-21.74Z"/><path class="cls-2" d="M306.09,42c1.64,0,3.19,.3,4.65,.91s2.73,1.43,3.8,2.48c1.07,1.05,1.93,2.27,2.56,3.66,.63,1.4,.95,2.88,.95,4.47s-.31,3.07-.95,4.47c-.63,1.4-1.48,2.62-2.56,3.66s-2.34,1.87-3.8,2.48-3.01,.91-4.65,.91c-1.32,0-2.52-.3-3.62-.91s-2-1.42-2.7-2.44v2.7h-5.64v-28.98h6.04v9.06c.78-.78,1.67-1.38,2.68-1.81,1.01-.43,2.09-.64,3.24-.64Zm-.12,17.55c.83,0,1.62-.16,2.35-.48,.74-.32,1.38-.75,1.91-1.29,.54-.54,.97-1.17,1.29-1.91,.32-.74,.48-1.52,.48-2.35s-.16-1.62-.48-2.36c-.32-.74-.75-1.37-1.29-1.91-.54-.54-1.17-.97-1.91-1.29s-1.52-.48-2.35-.48-1.62,.16-2.36,.48c-.74,.32-1.37,.75-1.91,1.29-.54,.54-.97,1.17-1.29,1.91-.32,.74-.48,1.52-.48,2.36s.16,1.62,.48,2.35c.32,.74,.75,1.38,1.29,1.91,.54,.54,1.17,.97,1.91,1.29,.74,.32,1.52,.48,2.36,.48Z"/><path class="cls-2" d="M324.24,33.55c.48,0,.93,.09,1.35,.28,.42,.19,.78,.44,1.09,.75,.31,.31,.56,.67,.74,1.09,.19,.42,.28,.87,.28,1.35s-.09,.93-.28,1.35c-.19,.42-.44,.79-.74,1.11-.31,.32-.67,.57-1.09,.74-.42,.17-.87,.26-1.35,.26-.97,0-1.79-.34-2.45-1.01-.67-.67-1.01-1.49-1.01-2.46,0-.48,.09-.93,.26-1.35,.17-.42,.42-.78,.75-1.09,.32-.31,.69-.56,1.11-.75,.42-.19,.87-.28,1.35-.28Zm-3.02,9.1h6.04v21.74h-6.04v-21.74Z"/><path class="cls-2" d="M331.65,35.4h6.04v28.98h-6.04v-28.98Z"/><path class="cls-2" d="M345.09,33.55c.48,0,.93,.09,1.35,.28,.42,.19,.78,.44,1.09,.75,.31,.31,.56,.67,.74,1.09,.19,.42,.28,.87,.28,1.35s-.09,.93-.28,1.35c-.19,.42-.44,.79-.74,1.11-.31,.32-.67,.57-1.09,.74-.42,.17-.87,.26-1.35,.26-.97,0-1.78-.34-2.45-1.01-.67-.67-1.01-1.49-1.01-2.46,0-.48,.09-.93,.26-1.35,.17-.42,.42-.78,.74-1.09,.32-.31,.69-.56,1.11-.75,.42-.19,.87-.28,1.35-.28Zm-3.02,9.1h6.04v21.74h-6.04v-21.74Z"/><path class="cls-2" d="M358.42,42.65h6.04v5.15h-6.04v5.72c0,.83,.16,1.62,.48,2.35,.32,.74,.75,1.38,1.29,1.91,.54,.54,1.17,.97,1.91,1.29,.74,.32,1.52,.48,2.35,.48v5.47h-.8c-1.66,0-3.19-.3-4.57-.91s-2.57-1.43-3.56-2.48-1.77-2.27-2.31-3.66c-.55-1.4-.82-2.88-.82-4.47v-18.11h6.04v7.25Z"/><path class="cls-2" d="M384.34,42.65h6.56l-13.2,28.98h-6.72l4.43-9.82-8.93-19.16h6.56l5.64,12.52,5.68-12.52Z"/><path class="cls-2" d="M163.06,98.8c-.98,1.23-2.11,2.29-3.4,3.18-1.29,.89-2.7,1.58-4.25,2.07-1.54,.5-3.17,.74-4.89,.74-2.17,0-4.22-.4-6.14-1.19-1.92-.79-3.6-1.87-5.03-3.24-1.44-1.37-2.56-2.97-3.38-4.81-.82-1.84-1.23-3.8-1.23-5.9s.41-4.06,1.23-5.9c.82-1.84,1.95-3.44,3.38-4.81,1.44-1.37,3.11-2.45,5.03-3.24,1.92-.79,3.97-1.19,6.14-1.19,1.72,0,3.36,.25,4.93,.74,1.57,.5,3.01,1.19,4.31,2.09,1.3,.9,2.44,1.97,3.4,3.22,.97,1.25,1.72,2.61,2.25,4.09h-7c-.83-1.31-1.93-2.37-3.3-3.16-1.37-.79-2.9-1.19-4.59-1.19-1.29,0-2.5,.25-3.64,.74-1.14,.5-2.13,1.17-2.98,2.01-.85,.85-1.51,1.83-1.99,2.96-.48,1.13-.72,2.33-.72,3.62s.24,2.5,.72,3.64c.48,1.14,1.15,2.13,1.99,2.98,.84,.85,1.84,1.51,2.98,1.99s2.35,.72,3.64,.72c1.66,0,3.17-.39,4.53-1.17,1.35-.78,2.45-1.81,3.28-3.1h7c-.54,1.48-1.29,2.83-2.27,4.07Z"/><path class="cls-2" d="M179.34,81.78c1.66,0,3.19,.3,4.57,.91,1.38,.6,2.57,1.43,3.56,2.47,.99,1.05,1.76,2.27,2.31,3.66,.55,1.39,.83,2.88,.83,4.47v10.87h-6.04v-10.87c0-.83-.11-1.62-.34-2.36-.23-.74-.56-1.37-1.01-1.91-.44-.54-.99-.97-1.65-1.29-.66-.32-1.4-.48-2.23-.48s-1.58,.16-2.23,.48c-.66,.32-1.21,.75-1.65,1.29s-.78,1.17-1.01,1.89-.34,1.5-.34,2.33v10.91h-6.04v-28.98h6.04v8.53c.7-.62,1.49-1.09,2.37-1.43s1.84-.5,2.86-.5Z"/><path class="cls-2" d="M205.3,81.78c1.66,0,3.23,.3,4.71,.91,1.48,.6,2.76,1.43,3.84,2.47,1.09,1.05,1.95,2.27,2.58,3.66,.63,1.39,.95,2.88,.95,4.47,0,.38-.02,.73-.06,1.07-.04,.34-.09,.68-.14,1.03h-17.55c.46,1.15,1.19,2.1,2.19,2.84,1.01,.74,2.17,1.11,3.48,1.11,.97,0,1.87-.21,2.7-.64s1.52-.99,2.05-1.69h6.68c-.4,1.13-.97,2.17-1.71,3.14-.74,.96-1.61,1.79-2.62,2.47-1.01,.69-2.11,1.22-3.32,1.61-1.21,.39-2.47,.58-3.78,.58-1.66,0-3.23-.3-4.71-.91-1.47-.6-2.76-1.43-3.84-2.47-1.09-1.05-1.95-2.27-2.58-3.66-.63-1.4-.95-2.88-.95-4.47s.32-3.07,.95-4.47c.63-1.4,1.49-2.62,2.58-3.66,1.09-1.05,2.37-1.87,3.84-2.47,1.48-.6,3.05-.91,4.71-.91Zm5.68,9.38c-.46-1.14-1.2-2.08-2.21-2.81s-2.17-1.1-3.46-1.1-2.48,.37-3.48,1.1c-1.01,.73-1.74,1.67-2.19,2.81h11.35Z"/><path class="cls-2" d="M231.06,87.25c-.83,0-1.62,.16-2.36,.48-.74,.32-1.37,.75-1.91,1.29-.54,.54-.97,1.17-1.29,1.91-.32,.74-.48,1.52-.48,2.36s.16,1.62,.48,2.36c.32,.74,.75,1.37,1.29,1.91,.54,.54,1.17,.97,1.91,1.29,.74,.32,1.52,.48,2.36,.48,1.13,0,2.14-.28,3.04-.85,.9-.56,1.6-1.3,2.11-2.21h6.48c-.35,1.23-.88,2.37-1.61,3.4-.72,1.03-1.6,1.93-2.62,2.7-1.02,.77-2.16,1.36-3.42,1.79-1.26,.43-2.59,.64-3.98,.64-1.67,0-3.24-.3-4.71-.91-1.48-.6-2.76-1.43-3.85-2.47-1.09-1.05-1.95-2.27-2.58-3.66-.63-1.4-.95-2.88-.95-4.47s.32-3.07,.95-4.47c.63-1.4,1.49-2.62,2.58-3.66,1.09-1.05,2.37-1.87,3.85-2.47,1.47-.6,3.04-.91,4.71-.91,1.39,0,2.73,.22,4,.66,1.27,.44,2.43,1.05,3.46,1.81,1.03,.76,1.92,1.68,2.66,2.76,.74,1.07,1.27,2.23,1.59,3.46h-6.36c-.54-.97-1.27-1.74-2.2-2.34-.93-.59-1.98-.88-3.16-.88Z"/><path class="cls-2" d="M257.71,91.68l9.9,12.48h-7.33l-8.82-11.47v11.47h-6.04v-28.98h6.04v15.58l7-8.33h7.25l-8.01,9.26Z"/><path class="cls-2" d="M280.49,81.78c1.66,0,3.23,.3,4.71,.91,1.48,.6,2.76,1.43,3.84,2.47,1.09,1.05,1.95,2.27,2.58,3.66,.63,1.39,.95,2.88,.95,4.47,0,.38-.02,.73-.06,1.07-.04,.34-.09,.68-.14,1.03h-17.55c.46,1.15,1.19,2.1,2.19,2.84,1.01,.74,2.17,1.11,3.48,1.11,.97,0,1.87-.21,2.7-.64s1.52-.99,2.05-1.69h6.68c-.4,1.13-.97,2.17-1.71,3.14-.74,.96-1.61,1.79-2.62,2.47-1.01,.69-2.11,1.22-3.32,1.61-1.21,.39-2.47,.58-3.78,.58-1.66,0-3.23-.3-4.71-.91-1.47-.6-2.76-1.43-3.84-2.47-1.09-1.05-1.95-2.27-2.58-3.66-.63-1.4-.95-2.88-.95-4.47s.32-3.07,.95-4.47c.63-1.4,1.49-2.62,2.58-3.66,1.09-1.05,2.37-1.87,3.84-2.47,1.48-.6,3.05-.91,4.71-.91Zm5.68,9.38c-.46-1.14-1.2-2.08-2.21-2.81s-2.17-1.1-3.46-1.1-2.48,.37-3.48,1.1c-1.01,.73-1.74,1.67-2.19,2.81h11.35Z"/><path class="cls-2" d="M296.01,88.82c.55-1.4,1.32-2.62,2.31-3.66,.99-1.05,2.18-1.87,3.56-2.47,1.38-.6,2.9-.91,4.57-.91h.81v5.47c-.83,0-1.62,.16-2.36,.48-.74,.32-1.37,.75-1.91,1.29-.54,.54-.97,1.17-1.29,1.91-.32,.74-.48,1.52-.48,2.36v10.87h-6.04v-10.87c0-1.58,.27-3.07,.82-4.47Z"/></g><g><rect class="cls-1" x="133.94" y="9.55" width="119.74" height="18.51"/><g><path class="cls-3" d="M138.4,23.53V13.19h7.09v2.07h-4.79v2.04h3.93v2.07h-3.93v2.1h4.79v2.07h-7.09Z"/><path class="cls-3" d="M146.28,19.65c0-.56,.11-1.1,.34-1.59,.22-.5,.53-.93,.91-1.31s.83-.67,1.35-.88c.52-.22,1.07-.32,1.66-.32s1.14,.11,1.66,.32,.97,.51,1.36,.88c.38,.37,.69,.81,.91,1.31,.22,.5,.34,1.03,.34,1.59v6.46h-2.15v-3.21c-.28,.27-.6,.48-.95,.63s-.74,.23-1.16,.23c-.59,0-1.15-.11-1.66-.32-.52-.21-.97-.51-1.35-.88s-.69-.81-.91-1.31c-.22-.5-.34-1.03-.34-1.59Zm2.15,0c0,.3,.06,.58,.17,.84,.12,.26,.27,.49,.46,.68,.19,.19,.42,.34,.68,.46,.26,.11,.54,.17,.84,.17s.58-.06,.84-.17c.26-.12,.49-.27,.68-.46,.19-.19,.35-.42,.46-.68,.11-.26,.17-.54,.17-.84s-.06-.58-.17-.84c-.12-.26-.27-.49-.46-.68-.19-.19-.42-.34-.68-.46-.26-.11-.54-.17-.84-.17s-.58,.06-.84,.17c-.26,.12-.49,.27-.68,.46-.19,.19-.35,.42-.46,.68-.11,.26-.17,.54-.17,.84Z"/><path class="cls-3" d="M161.76,15.78h2.15v3.88c0,.56-.09,1.1-.28,1.59-.19,.5-.45,.93-.8,1.31s-.76,.67-1.24,.88c-.48,.22-1.02,.32-1.61,.32s-1.13-.11-1.62-.32c-.48-.21-.9-.51-1.24-.88-.35-.37-.61-.81-.8-1.31-.19-.5-.28-1.03-.28-1.59v-3.88h2.15v3.88c0,.3,.04,.58,.11,.84,.07,.26,.18,.49,.33,.68,.15,.19,.33,.34,.56,.46,.22,.11,.49,.17,.78,.17s.56-.06,.78-.17c.22-.12,.41-.27,.56-.46,.15-.19,.26-.42,.33-.68s.11-.54,.11-.84v-3.88Z"/><path class="cls-3" d="M169.11,15.55c.58,0,1.13,.11,1.66,.32,.52,.22,.97,.51,1.36,.88,.38,.37,.69,.81,.91,1.31,.22,.5,.34,1.03,.34,1.59v3.88h-2.01v-.96c-.25,.36-.57,.65-.96,.87-.39,.22-.82,.32-1.29,.32-.59,0-1.15-.11-1.67-.32-.52-.21-.97-.51-1.35-.88s-.69-.81-.91-1.31c-.22-.5-.34-1.03-.34-1.59s.11-1.1,.34-1.59c.22-.5,.53-.93,.91-1.31s.83-.67,1.35-.88,1.07-.32,1.67-.32Zm.04,6.26c.3,0,.58-.06,.84-.17,.26-.12,.49-.27,.68-.46,.19-.19,.34-.42,.46-.68s.17-.54,.17-.84-.06-.58-.17-.84c-.12-.26-.27-.49-.46-.68-.19-.19-.42-.34-.68-.46-.26-.11-.54-.17-.84-.17s-.58,.06-.84,.17c-.26,.12-.49,.27-.68,.46-.19,.19-.34,.42-.46,.68-.12,.26-.17,.54-.17,.84s.06,.58,.17,.84,.27,.49,.46,.68c.19,.19,.42,.34,.68,.46,.26,.11,.54,.17,.84,.17Z"/><path class="cls-3" d="M174.74,13.19h2.15v10.33h-2.15V13.19Z"/><path class="cls-3" d="M179.53,12.53c.17,0,.33,.03,.48,.1,.15,.07,.28,.16,.39,.27,.11,.11,.2,.24,.26,.39s.1,.31,.1,.48-.03,.33-.1,.48c-.07,.15-.15,.28-.26,.39-.11,.12-.24,.2-.39,.27-.15,.06-.31,.09-.48,.09-.34,0-.64-.12-.87-.36-.24-.24-.36-.53-.36-.88,0-.17,.03-.33,.09-.48s.15-.28,.27-.39,.25-.2,.39-.27c.15-.07,.31-.1,.48-.1Zm-1.08,3.24h2.15v7.75h-2.15v-7.75Z"/><path class="cls-3" d="M181.84,15.78h6.24v1.55l-3.63,4.36h3.63v1.84h-6.34v-1.55l3.63-4.36h-3.53v-1.84Z"/><path class="cls-3" d="M192.97,15.55c.59,0,1.15,.11,1.68,.32s.98,.51,1.37,.88,.69,.81,.92,1.31c.22,.5,.34,1.03,.34,1.59,0,.13,0,.26-.02,.38-.01,.12-.03,.24-.05,.37h-6.26c.16,.41,.42,.75,.78,1.01s.77,.39,1.24,.39c.34,0,.66-.08,.96-.23,.3-.15,.54-.35,.73-.6h2.38c-.14,.4-.35,.77-.61,1.12s-.57,.64-.93,.88c-.36,.24-.75,.44-1.18,.57-.43,.14-.88,.21-1.35,.21-.59,0-1.15-.11-1.68-.32-.53-.21-.98-.51-1.37-.88s-.69-.81-.92-1.31c-.22-.5-.34-1.03-.34-1.59s.11-1.1,.34-1.59c.22-.5,.53-.93,.92-1.31s.84-.67,1.37-.88,1.09-.32,1.68-.32Zm2.02,3.34c-.16-.41-.43-.74-.79-1-.36-.26-.78-.39-1.23-.39s-.88,.13-1.24,.39c-.36,.26-.62,.59-.78,1h4.05Z"/><path class="cls-3" d="M211.5,18.36c0,.75-.13,1.44-.38,2.07-.25,.63-.62,1.18-1.08,1.64-.47,.46-1.04,.82-1.72,1.08s-1.44,.39-2.28,.39h-4.16V13.19h4.16c.81,0,1.55,.13,2.22,.39,.67,.26,1.24,.62,1.72,1.08,.48,.46,.85,1,1.12,1.64s.4,1.32,.4,2.07Zm-5.38,3.1c.43,0,.83-.08,1.21-.24,.37-.16,.7-.38,.98-.67,.28-.28,.5-.61,.67-.98,.16-.37,.24-.77,.24-1.21s-.08-.83-.24-1.21c-.16-.37-.38-.7-.67-.98-.28-.28-.61-.5-.98-.67-.37-.16-.77-.24-1.21-.24h-1.95v6.2h1.95Z"/><path class="cls-3" d="M214.14,12.53c.17,0,.33,.03,.48,.1,.15,.07,.28,.16,.39,.27s.2,.24,.27,.39c.07,.15,.1,.31,.1,.48s-.03,.33-.1,.48c-.07,.15-.16,.28-.27,.39-.11,.12-.24,.2-.39,.27-.15,.06-.31,.09-.48,.09-.35,0-.64-.12-.88-.36-.24-.24-.36-.53-.36-.88,0-.17,.03-.33,.09-.48,.06-.15,.15-.28,.26-.39,.12-.11,.25-.2,.4-.27,.15-.07,.31-.1,.48-.1Zm-1.08,3.24h2.15v7.75h-2.15v-7.75Z"/><path class="cls-3" d="M220.61,15.55c.58,0,1.13,.11,1.66,.32,.52,.22,.97,.51,1.36,.88,.38,.37,.69,.81,.91,1.31,.22,.5,.34,1.03,.34,1.59v3c0,.56-.11,1.1-.33,1.59-.22,.5-.52,.93-.9,1.31-.38,.37-.83,.67-1.36,.88-.52,.22-1.08,.32-1.67,.32-.46,0-.9-.07-1.34-.21-.43-.14-.82-.33-1.18-.58-.36-.25-.67-.55-.93-.9-.27-.35-.46-.73-.59-1.16h2.35c.19,.28,.43,.5,.72,.65s.61,.24,.95,.24c.29,0,.55-.05,.8-.16,.25-.11,.47-.25,.65-.44,.19-.19,.34-.4,.45-.65,.11-.25,.17-.52,.19-.8v-.03c-.25,.32-.55,.57-.91,.75-.36,.19-.75,.28-1.18,.28-.59,0-1.15-.11-1.67-.32-.52-.21-.97-.51-1.35-.88s-.69-.81-.91-1.31c-.22-.5-.34-1.03-.34-1.59s.11-1.1,.34-1.59c.22-.5,.53-.93,.91-1.31s.83-.67,1.35-.88,1.07-.32,1.67-.32Zm-2.11,4.1c0,.3,.06,.58,.17,.84s.27,.49,.46,.68c.19,.19,.42,.34,.68,.46,.26,.11,.54,.17,.84,.17s.58-.06,.84-.17c.26-.12,.49-.27,.68-.46,.19-.19,.34-.42,.46-.68s.17-.54,.17-.84-.06-.58-.17-.84c-.12-.26-.27-.49-.46-.68-.19-.19-.42-.34-.68-.46-.26-.11-.54-.17-.84-.17s-.58,.06-.84,.17c-.26,.12-.49,.27-.68,.46-.19,.19-.34,.42-.46,.68-.12,.26-.17,.54-.17,.84Z"/><path class="cls-3" d="M227.37,12.53c.17,0,.33,.03,.48,.1,.15,.07,.28,.16,.39,.27,.11,.11,.2,.24,.26,.39s.1,.31,.1,.48-.03,.33-.1,.48c-.07,.15-.15,.28-.26,.39-.11,.12-.24,.2-.39,.27-.15,.06-.31,.09-.48,.09-.34,0-.64-.12-.87-.36-.24-.24-.36-.53-.36-.88,0-.17,.03-.33,.09-.48s.15-.28,.27-.39,.25-.2,.39-.27c.15-.07,.31-.1,.48-.1Zm-1.08,3.24h2.15v7.75h-2.15v-7.75Z"/><path class="cls-3" d="M232.12,15.78h2.15v1.84h-2.15v2.04c0,.3,.06,.58,.17,.84,.12,.26,.27,.49,.46,.68,.19,.19,.42,.34,.68,.46,.26,.11,.54,.17,.84,.17v1.95h-.29c-.59,0-1.13-.11-1.63-.32-.49-.21-.92-.51-1.27-.88s-.63-.81-.83-1.31c-.2-.5-.29-1.03-.29-1.59v-6.46h2.15v2.58Z"/><path class="cls-3" d="M239.47,15.55c.58,0,1.14,.11,1.66,.32s.97,.51,1.36,.88c.38,.37,.69,.81,.91,1.31,.22,.5,.34,1.03,.34,1.59v3.88h-2.01v-.96c-.25,.36-.57,.65-.96,.87-.39,.22-.82,.32-1.29,.32-.59,0-1.15-.11-1.66-.32-.52-.21-.97-.51-1.35-.88s-.69-.81-.91-1.31c-.22-.5-.34-1.03-.34-1.59s.11-1.1,.34-1.59c.22-.5,.53-.93,.91-1.31s.83-.67,1.35-.88c.52-.22,1.07-.32,1.66-.32Zm.04,6.26c.3,0,.58-.06,.84-.17,.26-.12,.49-.27,.68-.46,.19-.19,.35-.42,.46-.68,.11-.26,.17-.54,.17-.84s-.06-.58-.17-.84c-.12-.26-.27-.49-.46-.68-.19-.19-.42-.34-.68-.46-.26-.11-.54-.17-.84-.17s-.58,.06-.84,.17c-.26,.12-.49,.27-.68,.46-.19,.19-.35,.42-.46,.68-.11,.26-.17,.54-.17,.84s.06,.58,.17,.84c.12,.26,.27,.49,.46,.68,.19,.19,.42,.34,.68,.46,.26,.11,.54,.17,.84,.17Z"/><path class="cls-3" d="M245.1,13.19h2.15v10.33h-2.15V13.19Z"/></g></g></g></svg>